<svg width="18" height="15" viewBox="0 0 18 15" fill="none" xmlns="http://www.w3.org/2000/svg">
<path d="M17.9836 1.77359C17.3226 2.07685 16.6118 2.27902 15.862 2.37457C16.6244 1.90598 17.2108 1.15859 17.486 0.275544C16.7728 0.708587 15.9827 1.02652 15.1418 1.19413C14.4705 0.457174 13.5128 0 12.4519 0C10.4138 0 8.76207 1.69565 8.76207 3.7862C8.76207 4.08196 8.79545 4.37022 8.85843 4.65C5.79246 4.49054 3.07321 2.98141 1.25397 0.690978C0.934339 1.25054 0.754526 1.90598 0.754526 2.59761C0.754526 3.91207 1.4045 5.06902 2.39552 5.75087C1.79058 5.73163 1.22122 5.5575 0.72272 5.27804C0.72272 5.28946 0.72272 5.30641 0.72272 5.32239C0.72272 7.15924 1.99496 8.68859 3.6813 9.03685C3.37301 9.12424 3.04739 9.17283 2.71169 9.17283C2.47331 9.17283 2.24122 9.14478 2.01637 9.10304C2.4859 10.604 3.84821 11.7013 5.46212 11.7336C4.19933 12.7474 2.60903 13.3546 0.879545 13.3546C0.580695 13.3546 0.288773 13.337 0 13.3008C1.63344 14.372 3.5736 15 5.65611 15C12.4421 15 16.1543 9.22957 16.1543 4.2238C16.1543 4.05978 16.1492 3.89641 16.1417 3.735C16.8663 3.20544 17.4904 2.53696 17.9836 1.77359Z" fill="#3A5B62"/>
</svg>
